<?xml version="1.0" encoding="UTF-8"?> <svg xmlns="http://www.w3.org/2000/svg" xmlns:xlink="http://www.w3.org/1999/xlink" width="572px" height="310px" viewBox="0 0 572 310" version="1.1"><title>img__process</title><g id="Page-1" stroke="none" stroke-width="1" fill="none" fill-rule="evenodd"><g id="HOTH-Blogger" transform="translate(-131.000000, -2320.000000)"><g id="img__process" transform="translate(131.000000, 2319.999377)"><path d="M222,310.000623 C355.376767,310.000623 482,303.000623 542.5,212.500623 C603,122.000623 567.876767,0 434.5,0 C301.123233,0 89.5,16.0006231 19,145.500623 C-51.5,275.000623 88.6232329,310.000623 222,310.000623 Z" id="Oval"></path><path d="M-3.97,169.144623 C-1.822,169.144623 -0.514,168.124623 -0.514,166.360623 C-0.514,164.512623 -2.47,164.128623 -3.79,163.900623 C-4.642,163.756623 -4.966,163.648623 -4.966,163.336623 C-4.966,163.132623 -4.834,162.916623 -4.234,162.916623 C-3.598,162.916623 -2.698,163.180623 -2.002,163.708623 L-0.706,161.992623 C-1.618,161.248623 -2.794,160.876623 -4.102,160.876623 C-6.298,160.876623 -7.426,162.112623 -7.426,163.468623 C-7.426,165.472623 -5.41,165.784623 -4.09,166.024623 C-3.298,166.168623 -2.962,166.324623 -2.962,166.636623 C-2.962,166.948623 -3.394,167.104623 -3.85,167.104623 C-4.93,167.104623 -5.83,166.648623 -6.43,166.072623 L-7.69,167.872623 C-6.838,168.640623 -5.674,169.144623 -3.97,169.144623 Z M6.418,169.000623 L6.418,163.108623 L8.554,163.108623 L8.554,160.996623 L1.846,160.996623 L1.846,163.108623 L3.994,163.108623 L3.994,169.000623 L6.418,169.000623 Z M12.462,169.000623 L12.774,167.968623 L15.846,167.968623 L16.158,169.000623 L18.786,169.000623 L15.834,160.996623 L12.786,160.996623 L9.834,169.000623 L12.462,169.000623 Z M15.222,165.952623 L13.398,165.952623 L14.31,163.132623 L15.222,165.952623 Z M23.642,169.000623 L23.642,166.432623 L24.518,166.432623 L25.622,169.000623 L28.382,169.000623 L26.93,166.168623 C27.566,165.856623 28.37,165.124623 28.37,163.744623 C28.37,162.244623 27.362,160.996623 25.49,160.996623 L21.218,160.996623 L21.218,169.000623 L23.642,169.000623 Z M25.118,164.416623 L23.642,164.416623 L23.642,163.012623 L25.118,163.012623 C25.526,163.012623 25.91,163.276623 25.91,163.708623 C25.91,164.152623 25.526,164.416623 25.118,164.416623 Z M35.374,169.000623 L35.374,163.108623 L37.51,163.108623 L37.51,160.996623 L30.802,160.996623 L30.802,163.108623 L32.95,163.108623 L32.95,169.000623 L35.374,169.000623 Z" id="START" fill="#494949" fill-rule="nonzero" transform="translate(14.910000, 165.010623) rotate(-90.000000) translate(-14.910000, -165.010623) "></path><g id="Group-10" transform="translate(33.000000, 161.750623)" stroke-linecap="round" stroke-width="2"><line x1="0" y1="5.25" x2="66" y2="5.25" id="Line-2" stroke="#FFFFFF"></line><line x1="0" y1="3.25" x2="66" y2="3.25" id="Line-2" stroke="#9C9797"></line><polyline id="Path-22" stroke="#9C9797" stroke-linejoin="round" transform="translate(66.500000, 3.250000) rotate(90.000000) translate(-66.500000, -3.250000) " points="64 4.5 66.5 2 69 4.5"></polyline></g><g id="Group-10" transform="translate(215.000000, 161.750623)" stroke-linecap="round" stroke-width="2"><line x1="0" y1="5.25" x2="66" y2="5.25" id="Line-2" stroke="#FFFFFF"></line><line x1="0" y1="3.25" x2="66" y2="3.25" id="Line-2" stroke="#9C9797"></line><polyline id="Path-22" stroke="#9C9797" stroke-linejoin="round" transform="translate(66.500000, 3.250000) rotate(90.000000) translate(-66.500000, -3.250000) " points="64 4.5 66.5 2 69 4.5"></polyline></g><g id="Group-10" transform="translate(420.000000, 161.750623)" stroke-linecap="round" stroke-width="2"><line x1="0" y1="5.25" x2="66" y2="5.25" id="Line-2" stroke="#FFFFFF"></line><line x1="0" y1="3.25" x2="66" y2="3.25" id="Line-2" stroke="#9C9797"></line><polyline id="Path-22" stroke="#9C9797" stroke-linejoin="round" transform="translate(66.500000, 3.250000) rotate(90.000000) translate(-66.500000, -3.250000) " points="64 4.5 66.5 2 69 4.5"></polyline></g><g id="Group-12" transform="translate(104.000000, 147.000623)" stroke-width="2"><rect id="Rectangle" stroke="#4A4242" fill="#FFFFFF" x="2" y="1" width="66" height="35" rx="2"></rect><path d="M0,4 L0,35 C2.02906125e-16,36.6568542 1.34314575,38 3,38 L65,38 L65,38" id="Path-23" stroke="#F7F2EF" stroke-linecap="round"></path></g><g id="icon--checkmark" transform="translate(184.000000, 152.000623)" fill="#4CCA4E"><circle id="Oval" fill-opacity="0.12" cx="13.592879" cy="13.592879" r="13.592879"></circle><path d="M9.95593123,12.625691 C9.55709471,12.090778 8.83915827,12.0124341 8.35237531,12.4507051 C7.86559234,12.888976 7.79429764,13.6778975 8.19313415,14.2128105 L11.8643001,17.9223134 C12.3176598,18.530352 13.1627958,18.5343297 13.6208788,17.9305809 L18.9864109,10.8588629 C19.3894027,10.3277238 19.3242605,9.53816019 18.8409119,9.09532319 C18.3575633,8.65248618 17.6390425,8.72406916 17.2360507,9.25520825 L12.7533593,15.1633509 L9.95593123,12.625691 Z" id="Path-4-Copy-10" fill-rule="nonzero"></path></g><g id="icon--checkmark" transform="translate(389.000000, 152.000623)" fill="#4CCA4E"><circle id="Oval" fill-opacity="0.12" cx="13.592879" cy="13.592879" r="13.592879"></circle><path d="M9.95593123,12.625691 C9.55709471,12.090778 8.83915827,12.0124341 8.35237531,12.4507051 C7.86559234,12.888976 7.79429764,13.6778975 8.19313415,14.2128105 L11.8643001,17.9223134 C12.3176598,18.530352 13.1627958,18.5343297 13.6208788,17.9305809 L18.9864109,10.8588629 C19.3894027,10.3277238 19.3242605,9.53816019 18.8409119,9.09532319 C18.3575633,8.65248618 17.6390425,8.72406916 17.2360507,9.25520825 L12.7533593,15.1633509 L9.95593123,12.625691 Z" id="Path-4-Copy-10" fill-rule="nonzero"></path></g><g id="icon--checkmark" transform="translate(125.000000, 195.000623)"><circle id="Oval" fill-opacity="0.12" fill="#E22D1B" cx="13.592879" cy="13.592879" r="13.592879"></circle><g id="icon-cross" transform="translate(10.000000, 10.000000)" stroke="#E22D1B" stroke-linecap="round" stroke-width="2"><line x1="0.571428571" y1="0.571428571" x2="7.42857143" y2="7.42857143" id="Line-13"></line><line x1="0.571428571" y1="0.571428571" x2="7.42857143" y2="7.42857143" id="Line-13" transform="translate(4.000000, 4.000000) scale(-1, 1) translate(-4.000000, -4.000000) "></line></g></g><g id="icon--checkmark" transform="translate(320.000000, 195.000623)"><circle id="Oval" fill-opacity="0.12" fill="#E22D1B" cx="13.592879" cy="13.592879" r="13.592879"></circle><g id="icon-cross" transform="translate(10.000000, 10.000000)" stroke="#E22D1B" stroke-linecap="round" stroke-width="2"><line x1="0.571428571" y1="0.571428571" x2="7.42857143" y2="7.42857143" id="Line-13"></line><line x1="0.571428571" y1="0.571428571" x2="7.42857143" y2="7.42857143" id="Line-13" transform="translate(4.000000, 4.000000) scale(-1, 1) translate(-4.000000, -4.000000) "></line></g></g><path d="M120.728,170.000623 L120.728,164.108623 L122.864,164.108623 L122.864,161.996623 L116.156,161.996623 L116.156,164.108623 L118.304,164.108623 L118.304,170.000623 L120.728,170.000623 Z M129.436,170.144623 C131.908,170.144623 133.816,168.464623 133.816,166.004623 C133.816,163.544623 131.908,161.864623 129.436,161.864623 C126.964,161.864623 125.056,163.544623 125.056,166.004623 C125.056,168.464623 126.964,170.144623 129.436,170.144623 Z M129.436,168.008623 C128.272,168.008623 127.516,167.120623 127.516,166.004623 C127.516,164.888623 128.272,164.000623 129.436,164.000623 C130.6,164.000623 131.356,164.888623 131.356,166.004623 C131.356,167.120623 130.6,168.008623 129.436,168.008623 Z M139.104,170.000623 L139.104,167.432623 L140.952,167.432623 C142.824,167.432623 143.832,166.232623 143.832,164.744623 C143.832,163.244623 142.824,161.996623 140.952,161.996623 L136.68,161.996623 L136.68,170.000623 L139.104,170.000623 Z M140.64,165.416623 L139.104,165.416623 L139.104,164.012623 L140.64,164.012623 C141.048,164.012623 141.372,164.288623 141.372,164.720623 C141.372,165.140623 141.048,165.416623 140.64,165.416623 Z M149.048,170.000623 L149.048,161.996623 L146.624,161.996623 L146.624,170.000623 L149.048,170.000623 Z M156.256,170.144623 C158.416,170.144623 159.484,168.872623 159.952,167.804623 L157.864,166.844623 C157.66,167.468623 157.036,168.008623 156.256,168.008623 C155.152,168.008623 154.372,167.120623 154.372,166.004623 C154.372,164.888623 155.152,164.000623 156.256,164.000623 C157.036,164.000623 157.66,164.540623 157.864,165.164623 L159.952,164.192623 C159.472,163.088623 158.416,161.864623 156.256,161.864623 C153.808,161.864623 151.912,163.532623 151.912,166.004623 C151.912,168.464623 153.808,170.144623 156.256,170.144623 Z" id="TOPIC" fill="#1895FD" fill-rule="nonzero"></path><rect id="Rectangle" stroke="#4A4242" stroke-width="2" fill="#FFFFFF" x="290" y="148.000623" width="87" height="35" rx="2"></rect><path d="M304.74,170.000623 L305.052,168.968623 L308.124,168.968623 L308.436,170.000623 L311.064,170.000623 L308.112,161.996623 L305.064,161.996623 L302.112,170.000623 L304.74,170.000623 Z M307.5,166.952623 L305.676,166.952623 L306.588,164.132623 L307.5,166.952623 Z M315.92,170.000623 L315.92,167.432623 L316.796,167.432623 L317.9,170.000623 L320.66,170.000623 L319.208,167.168623 C319.844,166.856623 320.648,166.124623 320.648,164.744623 C320.648,163.244623 319.64,161.996623 317.768,161.996623 L313.496,161.996623 L313.496,170.000623 L315.92,170.000623 Z M317.396,165.416623 L315.92,165.416623 L315.92,164.012623 L317.396,164.012623 C317.804,164.012623 318.188,164.276623 318.188,164.708623 C318.188,165.152623 317.804,165.416623 317.396,165.416623 Z M327.652,170.000623 L327.652,164.108623 L329.788,164.108623 L329.788,161.996623 L323.08,161.996623 L323.08,164.108623 L325.228,164.108623 L325.228,170.000623 L327.652,170.000623 Z M335.076,170.000623 L335.076,161.996623 L332.652,161.996623 L332.652,170.000623 L335.076,170.000623 Z M342.284,170.144623 C344.444,170.144623 345.512,168.872623 345.98,167.804623 L343.892,166.844623 C343.688,167.468623 343.064,168.008623 342.284,168.008623 C341.18,168.008623 340.4,167.120623 340.4,166.004623 C340.4,164.888623 341.18,164.000623 342.284,164.000623 C343.064,164.000623 343.688,164.540623 343.892,165.164623 L345.98,164.192623 C345.5,163.088623 344.444,161.864623 342.284,161.864623 C339.836,161.864623 337.94,163.532623 337.94,166.004623 C337.94,168.464623 339.836,170.144623 342.284,170.144623 Z M354.196,170.000623 L354.196,167.888623 L351.16,167.888623 L351.16,161.996623 L348.736,161.996623 L348.736,170.000623 L354.196,170.000623 Z M363.24,170.000623 L363.24,167.984623 L359.592,167.984623 L359.592,166.964623 L363.156,166.964623 L363.156,164.948623 L359.592,164.948623 L359.592,164.012623 L363.24,164.012623 L363.24,161.996623 L357.168,161.996623 L357.168,170.000623 L363.24,170.000623 Z" id="ARTICLE" fill="#1895FD" fill-rule="nonzero"></path><g id="icon__expert-content" transform="translate(486.000000, 134.000623)"><rect id="Rectangle" x="2" y="2" width="60" height="60"></rect><g id="Group-9" transform="translate(0.000000, 57.000000)" stroke="#23CE6B" stroke-linecap="round"><line x1="5.5" y1="5" x2="3" y2="6.5" id="Path-12"></line><line x1="8.64117326" y1="7.75" x2="8.25" y2="10.25" id="Path-12"></line><line x1="3.5" y1="1" x2="0.5" y2="1" id="Path-11"></line></g><g id="Group-9" transform="translate(57.000000, 5.500000) scale(-1, -1) translate(-57.000000, -5.500000) translate(52.000000, 0.000000)" stroke="#23CE6B" stroke-linecap="round"><line x1="5.5" y1="5" x2="3" y2="6.5" id="Path-12"></line><line x1="8.64117326" y1="7.75" x2="8.25" y2="10.25" id="Path-12"></line><line x1="3.5" y1="1" x2="0.5" y2="1" id="Path-11"></line></g><line x1="10" y1="59" x2="54" y2="59" id="shadow" stroke="#F7F2EF" stroke-width="2" stroke-linecap="round"></line><g id="page" transform="translate(10.000000, 8.000000)"><rect id="Rectangle" stroke="#4A4242" stroke-width="2" fill="#FFFFFF" x="1" y="1" width="42" height="48"></rect><line x1="6" y1="8" x2="23" y2="8" id="Line-12" stroke="#4A4242" stroke-width="2" stroke-linecap="round"></line><line x1="6.5" y1="32.5" x2="38.25" y2="32.5" id="Line-12" stroke="#BABABA" stroke-width="2" stroke-linecap="round"></line><rect id="Rectangle" fill="#1895FD" x="6" y="14" width="32" height="12"></rect><line x1="6.5" y1="38.5" x2="24.25" y2="38.5" id="Line-12" stroke="#BABABA" stroke-width="2" stroke-linecap="round"></line></g></g><g id="Group-11" transform="translate(71.500000, 171.500623)" stroke-linecap="round" stroke-width="2"><path d="M44,37.5 C44,37.5 2.5,39 2.5,3" id="Path-21" stroke="#FFFFFF"></path><path d="M44,37.5 C44,37.5 2.5,39 2.5,3" id="Path-21" stroke="#E22D1B" stroke-dasharray="1,6"></path><polyline id="Path-22" stroke="#E22D1B" stroke-linejoin="round" points="0 2.5 2.5 0 5 2.5"></polyline></g><g id="Group-11" transform="translate(269.000000, 171.500623)" stroke-linecap="round" stroke-width="2"><path d="M44,37.5 C44,37.5 2.5,39 2.5,3" id="Path-21" stroke="#FFFFFF"></path><path d="M44,37.5 C44,37.5 2.5,39 2.5,3" id="Path-21" stroke="#E22D1B" stroke-dasharray="1,6"></path><polyline id="Path-22" stroke="#E22D1B" stroke-linejoin="round" points="0 2.5 2.5 0 5 2.5"></polyline></g><path d="M288,151.000623 L288,182.000623 C288,183.657477 289.343146,185.000623 291,185.000623 L373.5,185.000623 L373.5,185.000623" id="Path-23" stroke="#F7F2EF" stroke-width="2" stroke-linecap="round"></path></g></g></g></svg> 